<svg width="40" height="40" viewBox="0 0 40 40" fill="none" xmlns="http://www.w3.org/2000/svg">
<path d="M8.56627 10.6883C8.56627 13.28 7.32045 15.3804 5.78327 15.3804C4.24629 15.3804 3 13.28 3 10.6883C3 8.10047 4.24629 6.00004 5.78327 6.00004C7.32045 6.00004 8.56627 8.10047 8.56627 10.6883Z" fill="#7B852D"/>
<path d="M36.3977 10.6883C36.3977 13.28 35.1518 15.3804 33.6146 15.3804C32.0778 15.3804 30.8314 13.28 30.8314 10.6883C30.8314 8.10047 32.0778 6.00004 33.6146 6.00004C35.1518 6.00004 36.3977 8.10047 36.3977 10.6883Z" fill="#7B852D"/>
<path d="M29.2527 21.3304C31.7725 21.3304 33.406 23.9809 32.2842 26.2372C30.1691 30.491 25.3881 33.4587 19.8287 33.4587C14.2696 33.4587 9.48829 30.491 7.37333 26.2372C6.2514 23.9809 7.88508 21.3304 10.4047 21.3304H29.2527Z" fill="#7B852D"/>
</svg>
