<svg width="40" height="40" viewBox="0 0 40 40" fill="none" xmlns="http://www.w3.org/2000/svg">
<path d="M7 16.0387C7 14.1051 8.56724 12.5385 10.5002 12.5385C12.4332 12.5385 14 14.1051 14 16.0387C14 17.9716 12.4332 19.5385 10.5002 19.5385C8.56724 19.5385 7 17.9716 7 16.0387Z" fill="#365B8E"/>
<path d="M27 15.5002C27 13.5666 28.5672 12 30.5004 12C32.4331 12 34 13.5666 34 15.5002C34 17.433 32.4331 19 30.5004 19C28.5672 19 27 17.433 27 15.5002Z" fill="#365B8E"/>
<path d="M36 28.4615H5C4.63099 28.4615 4 27.7902 4 26.9612C4 26.1336 4.63099 25.4615 5 25.4615H36C36.3689 25.4615 37 26.1336 37 26.9612C37 27.7902 36.3689 28.4615 36 28.4615Z" fill="#365B8E"/>
</svg>
