<svg width="40" height="40" viewBox="0 0 40 40" fill="none" xmlns="http://www.w3.org/2000/svg">
<path d="M29.8228 20.4198C31.9997 20.4198 33.4757 22.6271 32.6542 24.6435C30.716 29.401 25.5964 32.8002 19.5856 32.8002C13.5746 32.8002 8.45493 29.401 6.51678 24.6435C5.69521 22.6271 7.17155 20.4198 9.34814 20.4198H29.8228Z" fill="#475E11"/>
<path d="M2.0913 13.1518C2.06868 13.0868 2.05163 13.019 2.04132 12.9488C1.41094 8.71722 8.16898 7.63574 10.3418 8.45172C11.4577 8.87085 12.5777 9.60005 13.4679 10.5056C13.8115 10.8551 16.02 14.1555 14.4315 14.1996C14.1963 14.2067 13.9828 14.046 13.7912 13.8838C12.3408 12.6587 11.568 10.8447 9.73918 10.3222C7.7322 9.74846 5.53241 10.5251 4.13081 12.3405C3.68768 12.9147 2.57053 14.5467 2.0913 13.1518Z" fill="#475E11"/>
<path d="M37.9087 12.9519C37.9313 12.887 37.9484 12.8192 37.9587 12.749C38.5891 8.51739 31.831 7.43591 29.6582 8.25189C28.5423 8.67102 27.4223 9.40022 26.5321 10.3058C26.1885 10.6552 23.98 13.9557 25.5685 13.9998C25.8037 14.0069 26.0172 13.8461 26.2088 13.684C27.6592 12.4588 28.432 10.6448 30.2608 10.1223C32.2678 9.54863 34.4676 10.3252 35.8692 12.1407C36.3123 12.7149 37.4295 14.3468 37.9087 12.9519Z" fill="#475E11"/>
</svg>
