<svg width="40" height="40" viewBox="0 0 40 40" fill="none" xmlns="http://www.w3.org/2000/svg">
<path d="M27.9672 31.0235C28.4367 31.1952 28.9106 30.7996 28.8399 30.3041C28.2522 26.1755 24.2946 22.9834 19.4996 22.9834C14.7064 22.9834 10.7495 26.1735 10.1597 30.3006C10.089 30.7968 10.5647 31.1927 11.0352 31.019L15.5531 29.3496C18.0709 28.4194 20.8372 28.4149 23.3581 29.3372L27.9672 31.0235Z" fill="#906A1F"/>
<path d="M11.8684 15.2269C11.8684 17.0184 11.0069 18.4707 9.9435 18.4707C8.88085 18.4707 8.01929 17.0184 8.01929 15.2269C8.01929 13.4352 8.88085 11.9828 9.9435 11.9828C11.0069 11.9828 11.8684 13.4352 11.8684 15.2269Z" fill="#906A1F"/>
<path d="M31.1147 15.2269C31.1147 17.0184 30.2528 18.4707 29.1898 18.4707C28.1272 18.4707 27.2653 17.0184 27.2653 15.2269C27.2653 13.4352 28.1272 11.9828 29.1898 11.9828C30.2528 11.9828 31.1147 13.4352 31.1147 15.2269Z" fill="#906A1F"/>
<path d="M12.1259 12.8718C10.9686 11.988 8.23452 10.3616 3.77831 10.354C3.55157 10.3537 3.33384 10.2483 3.20833 10.0593C2.97708 9.71261 2.77355 9.12804 3.55538 8.67178C3.55538 8.67178 5.73547 7.38379 8.31149 8.37468C8.31149 8.37468 11.1559 9.79685 12.3003 11.6212C12.3513 11.7017 12.3853 11.7908 12.4075 11.8837L12.5711 12.5809C12.6321 12.8399 12.3374 13.033 12.1259 12.8718Z" fill="#906A1F"/>
<path d="M26.8737 12.8718C28.031 11.988 30.7655 10.3616 35.2217 10.354C35.4485 10.3537 35.6662 10.2483 35.7917 10.0593C36.0229 9.71261 36.2265 9.12804 35.4446 8.67178C35.4446 8.67178 33.2645 7.38379 30.6882 8.37468C30.6882 8.37468 27.8438 9.79685 26.6993 11.6212C26.6491 11.7017 26.6144 11.7908 26.5929 11.8837L26.4286 12.5809C26.3675 12.8399 26.6626 13.033 26.8737 12.8718Z" fill="#906A1F"/>
</svg>
