<svg width="40" height="40" viewBox="0 0 40 40" fill="none" xmlns="http://www.w3.org/2000/svg">
<path d="M30.1175 31.9575C31.3196 31.9575 32.2179 30.8214 31.9065 29.6601C30.7446 25.3275 26.3693 22.106 21.1495 22.106C15.9295 22.106 11.554 25.3275 10.3919 29.6601C10.0805 30.8214 10.9789 31.9575 12.1814 31.9575L18.994 31.0473C20.3574 30.865 21.7392 30.8628 23.1038 31.0413L30.1175 31.9575Z" fill="#8D3B1B"/>
<path d="M12.0222 12.0869C13.1188 11.3332 13.9782 10.2919 14.8997 9.33166C15.0393 9.18618 15.1955 9.03441 15.3952 9.00488C15.665 8.96497 15.923 9.17676 16.0215 9.43126C16.1199 9.68577 16.0936 9.97011 16.0481 10.2394C15.6478 12.6113 13.8954 14.5795 11.8377 15.8263C10.7414 16.4911 9.52166 16.9938 8.24338 17.096C7.05811 17.1909 5.72789 16.9213 4.79178 16.1483C3.98629 15.4838 3.55461 14.3643 4.69177 13.8977C5.64174 13.5081 7.12315 13.7299 8.14824 13.5461C9.51616 13.301 10.8675 12.8803 12.0222 12.0869Z" fill="#8D3B1B"/>
<path d="M28.9778 12.0869C27.8812 11.3332 27.0216 10.2919 26.1006 9.33166C25.9608 9.18618 25.8043 9.03441 25.6051 9.00488C25.3349 8.96497 25.077 9.17676 24.9783 9.43126C24.8803 9.68577 24.9067 9.97011 24.9519 10.2394C25.3522 12.6113 27.1048 14.5795 29.1622 15.8263C30.2588 16.4911 31.4786 16.9938 32.7564 17.096C33.9422 17.1909 35.2719 16.9213 36.2086 16.1483C37.0136 15.4838 37.4453 14.3643 36.3085 13.8977C35.3587 13.5081 33.8772 13.7299 32.8519 13.5461C31.4839 13.301 30.1328 12.8803 28.9778 12.0869Z" fill="#8D3B1B"/>
</svg>
